<?xml version="1.0" encoding="UTF-8"?>
<svg width="1024" height="1024" viewBox="0 0 1024 1024" xmlns="http://www.w3.org/2000/svg">
  <!-- macOS squircle background -->
  <rect x="0" y="0" width="1024" height="1024" rx="228" fill="#F0E6D6"/>
  <rect x="0" y="0" width="1024" height="1024" rx="228" fill="none" stroke="#D4C4A8" stroke-width="4"/>

  <!-- Shark fin -->
  <path d="
    M345 705
    Q355 420 420 285
    Q450 225 512 250
    Q528 258 534 295
    Q552 420 578 510
    Q600 595 680 705
    Z
  " fill="#6B4C30"/>

  <!-- Fin highlight -->
  <path d="
    M377 705
    Q387 465 435 325
    Q450 290 465 310
    Q470 318 473 340
  " fill="none" stroke="#8B6840" stroke-width="5" stroke-linecap="round" opacity="0.5"/>

  <!-- Water/text line 1 — the "surface" -->
  <line x1="230" y1="705" x2="794" y2="705" stroke="#B8A080" stroke-width="10" stroke-linecap="round"/>

  <!-- Text lines -->
  <line x1="282" y1="775" x2="742" y2="775" stroke="#C4A882" stroke-width="6.5" stroke-linecap="round" opacity="0.55"/>
  <line x1="320" y1="832" x2="704" y2="832" stroke="#C4A882" stroke-width="5" stroke-linecap="round" opacity="0.35"/>
  <line x1="358" y1="883" x2="666" y2="883" stroke="#C4A882" stroke-width="4" stroke-linecap="round" opacity="0.2"/>
</svg>
